# xmcd
# Copyright (C) 1995-1998 Ti Kan
#
# Track frame offsets:
#       150
#       17327
#       29272
#       50215
#       62815
#       73267
#       86837
#       95360
#       105907
#       114630
#       128552
#       139812
#       148327
#
# Disc length: 2244 seconds
#
# Revision: 0
# Processed by: cddbd v1.5.2PL0 Copyright (c) Steve Scherf et al.
# Submitted via: CD-Import v1.0
#
DISCID=ba08c20d
DTITLE=Jerry Lee Lewis - Live At The Star Club Hamburg
DYEAR=1974
DGENRE=
TTITLE0=I Got A Women
TTITLE1=High School Confidential
TTITLE2=Money ( That's What I Want )
TTITLE3=Matchbox
TTITLE4=What'd I Say - Part 1
TTITLE5=What'd I Say - Part 2
TTITLE6=Great Balls Of Fire
TTITLE7=Good Golly Miss Molly
TTITLE8=Lewis Boogie
TTITLE9=Your Cheating Heart
TTITLE10=Hound Dog
TTITLE11=Long Tall Sally
TTITLE12=Whole Lotta Shakin' Goin' On
EXTD=
EXTT0=
EXTT1=
EXTT2=
EXTT3=
EXTT4=
EXTT5=
EXTT6=
EXTT7=
EXTT8=
EXTT9=
EXTT10=
EXTT11=
EXTT12=
PLAYORDER=
